<svg xmlns="http://www.w3.org/2000/svg" viewBox="0 0 240 360"><defs><linearGradient id="sky1" x1="0%" y1="0%" x2="20%" y2="100%"><stop stop-color="#b86d38"/><stop offset="1" stop-color="#121d29"/></linearGradient><filter id="grain1"><feTurbulence type="fractalNoise" baseFrequency=".7" numOctaves="2" stitchTiles="stitch"/><feColorMatrix type="saturate" values="0"/><feComponentTransfer><feFuncA type="linear" slope=".07"/></feComponentTransfer><feBlend in="SourceGraphic" mode="soft-light"/></filter></defs><g filter="url(#grain1)"><rect width="240" height="360" fill="url(#sky1)"/><circle cx="180" cy="70" r="42" fill="#eed9b4" opacity=".42"/><rect x="-5" y="145" width="25" height="210" fill="#21343c"/><path d="M4 166v134" stroke="#b5cece" stroke-width="2" opacity=".3"/><rect x="29" y="169" width="25" height="210" fill="#172630"/><path d="M38 190v134" stroke="#b5cece" stroke-width="2" opacity=".3"/><rect x="63" y="193" width="25" height="210" fill="#21343c"/><path d="M72 214v134" stroke="#b5cece" stroke-width="2" opacity=".3"/><rect x="97" y="145" width="25" height="210" fill="#172630"/><path d="M106 166v134" stroke="#b5cece" stroke-width="2" opacity=".3"/><rect x="131" y="169" width="25" height="210" fill="#21343c"/><path d="M140 190v134" stroke="#b5cece" stroke-width="2" opacity=".3"/><rect x="165" y="193" width="25" height="210" fill="#172630"/><path d="M174 214v134" stroke="#b5cece" stroke-width="2" opacity=".3"/><rect x="199" y="145" width="25" height="210" fill="#21343c"/><path d="M208 166v134" stroke="#b5cece" stroke-width="2" opacity=".3"/><rect x="233" y="169" width="25" height="210" fill="#172630"/><path d="M242 190v134" stroke="#b5cece" stroke-width="2" opacity=".3"/><path d="M140 283l-8-41h-9l-10 41v61h27Z" fill="#060e14"/><rect y="293" width="240" height="67" fill="#121d29" opacity=".64"/><text x="16" y="324" fill="#eed9b4" font-family="Barlow Condensed SemiBold, Barlow Condensed, sans-serif" font-size="20" font-weight="600" letter-spacing="1">BLADE RUNNER 2049</text><text x="16" y="343" fill="#eed9b4" opacity=".8" font-family="IBM Plex Mono, monospace" font-size="8" letter-spacing="2">ILLUSTRATIVE ARTWORK</text></g></svg>